<svg width="44" height="44" viewBox="0 0 44 44" fill="none" xmlns="http://www.w3.org/2000/svg">
<path d="M22 0.328125C9.95898 0.328125 0.203125 10.084 0.203125 22.125C0.203125 34.166 9.95898 43.9219 22 43.9219C34.041 43.9219 43.7969 34.166 43.7969 22.125C43.7969 10.084 34.041 0.328125 22 0.328125ZM22 8.76562C26.2188 8.76562 29.7344 12.2812 29.7344 16.5C29.7344 20.8066 26.2188 24.2344 22 24.2344C17.6934 24.2344 14.2656 20.8066 14.2656 16.5C14.2656 12.2812 17.6934 8.76562 22 8.76562ZM22 39C16.8145 39 12.1562 36.7148 9.08008 33.0234C10.75 29.9473 14.002 27.75 17.7812 27.75C17.957 27.75 18.1328 27.8379 18.3965 27.9258C19.5391 28.2773 20.6816 28.4531 22 28.4531C23.2305 28.4531 24.4609 28.2773 25.5156 27.9258C25.7793 27.8379 25.9551 27.75 26.2188 27.75C29.9102 27.75 33.1621 29.9473 34.832 33.0234C31.7559 36.7148 27.0977 39 22 39Z" fill="#8C8CA1"/>
</svg>
